<svg id="Layer_1" data-name="Layer 1" xmlns="http://www.w3.org/2000/svg" viewBox="0 0 1368.92 584.71"><defs><style>.cls-1{fill:#3cf;}.cls-2{fill:#fff;}.cls-3{fill:#1d6adb;}</style></defs><rect class="cls-1" width="1368.92" height="584.71"/><rect class="cls-2" x="39.9" y="34.39" width="1287.75" height="382.47"/><path class="cls-1" d="M133.68,94.19l-29.17-.06V140.8h30.32s22.66,1.36,22-25.46C156.27,93.32,133.68,94.19,133.68,94.19Zm0,36.44v.13h-29v-26h28.5a4.1,4.1,0,0,1,.5,0,13,13,0,0,1,0,25.85Z"/><path class="cls-3" d="M154.59,226.62,119.53,164.7h-15v61.92H72.64V67.73h59.64q18.43,0,31.41,6.48t19.47,17.53a47.92,47.92,0,0,1,6.48,24.7,47.3,47.3,0,0,1-9.1,28.34q-9.1,12.63-27.09,17.42l38,64.42ZM104.51,140.8h26.63q13,0,19.35-6.26t6.37-17.42q0-10.92-6.37-17t-19.35-6H104.51Z"/><path class="cls-3" d="M337.61,100.51V226.62h-32.1V210.68a41.94,41.94,0,0,1-16.05,12.86A49.82,49.82,0,0,1,268,228.21q-14.81,0-26.18-6.26a44.12,44.12,0,0,1-17.87-18.44q-6.48-12.16-6.49-29v-74h31.87v69.43q0,15,7.52,23.1t20.48,8.08q13.2,0,20.72-8.08t7.51-23.1V100.51Z"/><path class="cls-3" d="M368.45,129.19a55,55,0,0,1,50.19-30.73,53.52,53.52,0,0,1,23.45,5.35A47.11,47.11,0,0,1,459.85,118V58.17h32.32V226.62H459.85V208a43.14,43.14,0,0,1-16.62,15q-10.71,5.7-24.81,5.7a54.18,54.18,0,0,1-29.14-8.2,57,57,0,0,1-20.83-23.1q-7.63-14.91-7.63-34.26Q360.82,144,368.45,129.19Zm87.07,14.45a32.17,32.17,0,0,0-12.29-12.74,32.85,32.85,0,0,0-16.62-4.44,32,32,0,0,0-28.57,17q-4.67,8.31-4.66,19.69A40.92,40.92,0,0,0,398,183a33.56,33.56,0,0,0,12.29,13.08,31.21,31.21,0,0,0,16.28,4.56,32.85,32.85,0,0,0,16.62-4.44,32.13,32.13,0,0,0,12.29-12.75q4.55-8.31,4.55-19.92T455.52,143.64Z"/><path class="cls-3" d="M571.27,104.38a44.67,44.67,0,0,1,22.65-5.69v33.46H585.5q-15,0-22.65,7.06t-7.63,24.58v62.83H523.35V100.51h31.87v19.57A44.85,44.85,0,0,1,571.27,104.38Z"/><path class="cls-3" d="M614.75,129.19a55.9,55.9,0,0,1,20.71-22.76,55.1,55.1,0,0,1,29.26-8q14.1,0,24.69,5.69a50,50,0,0,1,17,14.34v-18h32.1V226.62h-32.1V208.18a47.31,47.31,0,0,1-17,14.68q-10.81,5.8-24.92,5.81a53.64,53.64,0,0,1-29-8.2,57.32,57.32,0,0,1-20.71-23.1q-7.63-14.91-7.63-34.26Q607.12,144,614.75,129.19Zm87.07,14.45a32.24,32.24,0,0,0-12.29-12.74,32.85,32.85,0,0,0-16.62-4.44,32,32,0,0,0-28.57,17q-4.67,8.31-4.66,19.69A40.92,40.92,0,0,0,644.34,183a33.56,33.56,0,0,0,12.29,13.08,31.21,31.21,0,0,0,16.28,4.56,32.85,32.85,0,0,0,16.62-4.44,32.2,32.2,0,0,0,12.29-12.75q4.54-8.31,4.55-19.92T701.82,143.64Z"/><path class="cls-3" d="M864.81,226.62l-34.38-53.5-31.18,53.5h-36l50.08-80.13L762.6,67.73h36.65L833.62,121l31-53.26h36l-49.85,79.9,50.77,79Z"/><path class="cls-3" d="M925.58,129.3a56.93,56.93,0,0,1,22.08-22.76q14.12-8.08,32.33-8.08,23.44,0,38.81,11.72t20.6,32.89H1005a25.21,25.21,0,0,0-9.22-12.86q-6.49-4.67-16-4.66-13.66,0-21.63,9.9t-8,28.11q0,18,8,27.89t21.63,9.9q19.35,0,25.27-17.3h34.37q-5.24,20.49-20.71,32.55T980,228.67q-18.22,0-32.33-8.08a57,57,0,0,1-22.08-22.77q-8-14.69-8-34.26T925.58,129.3Z"/><path class="cls-3" d="M1179.17,173.12H1087q1.14,13.66,9.57,21.4t20.71,7.74q17.76,0,25.27-15.25h34.37A57.4,57.4,0,0,1,1156,216.94q-15.48,11.73-38,11.73a65.82,65.82,0,0,1-32.66-8.08,56.93,56.93,0,0,1-22.54-22.88q-8.09-14.81-8.08-34.15,0-19.58,8-34.37a55.54,55.54,0,0,1,22.31-22.76q14.34-8,33-8,18,0,32.21,7.74a54.42,54.42,0,0,1,22.08,22q7.86,14.24,7.86,32.67A76,76,0,0,1,1179.17,173.12Zm-32.1-21.4q-.22-12.28-8.88-19.69T1117,124.64q-11.83,0-19.92,7.17t-9.9,19.91Z"/><path class="cls-3" d="M1235.16,58.17V226.62h-31.87V58.17Z"/><path class="cls-3" d="M1298.45,58.17V226.62h-31.87V58.17Z"/><path class="cls-1" d="M133.68,104.76v0a4.1,4.1,0,0,0-.5,0Z"/><polygon class="cls-1" points="104.68 164.76 139.68 226.76 154.68 226.76 119.68 164.76 104.68 164.76"/><polygon class="cls-1" points="799.25 67.73 815.25 67.73 840.76 108.71 833.62 120.99 799.25 67.73"/><polygon class="cls-1" points="850.68 147.76 858.55 135.03 917.68 226.76 901.68 226.76 850.68 147.76"/><path class="cls-1" d="M73.47,386.66V270.88H81V379.17h57.71v7.49Z"/><path class="cls-1" d="M235,386.66V270.88h7.48V386.66Z"/><path class="cls-1" d="M351.57,278.37v45.08h56.07v7.49H351.57v55.72H344.1V270.88h65.19v7.49Z"/><path class="cls-1" d="M517.54,278.37V322.1H572v7.49H517.54v49.58h55.92v7.49h-63.4V270.88h63.4v7.49Z"/><path class="cls-1" d="M729.85,388.46a61.74,61.74,0,0,1-23.32-4.65,74,74,0,0,1-10-5.54,51.32,51.32,0,0,1-8.82-7.34,59.94,59.94,0,0,1-12.86-65.45,55.2,55.2,0,0,1,12.86-19,58.49,58.49,0,0,1,18.84-12.88,59.56,59.56,0,0,1,23.32-4.65A58.87,58.87,0,0,1,772,286.46l-5.38,5.24a49.62,49.62,0,0,0-16.82-11.38,52,52,0,0,0-20-3.9,50.92,50.92,0,0,0-20.33,4.12,51.83,51.83,0,0,0-27.74,27.78,51.21,51.21,0,0,0-4.11,20.37,50.63,50.63,0,0,0,4.11,20.3,53.62,53.62,0,0,0,11.14,16.62,51.83,51.83,0,0,0,16.6,11.24A50.75,50.75,0,0,0,729.85,381a52,52,0,0,0,20-3.9,49.62,49.62,0,0,0,16.82-11.38l5.38,5.24a58.22,58.22,0,0,1-19,12.88A60.74,60.74,0,0,1,729.85,388.46Z"/><path class="cls-1" d="M962.35,388.31l-20.18-44.79H889.84l-20.19,44.79-6.73-3.15L916,267.59l53.23,117.57ZM893.27,336h45.46L916,285.71Z"/><path class="cls-1" d="M1124.28,333.64a38.9,38.9,0,0,1-21.08,10.48l31,40.29-6,4.5-33.79-44H1069v41.79h-7.48V270.88h31.85q18.39,0,29.61,8.69a29.37,29.37,0,0,1,9.19,11.38,36.2,36.2,0,0,1,3.07,15.13Q1135.2,323,1124.28,333.64ZM1069,337.38h24.22a37.77,37.77,0,0,0,14.5-2.1,31.59,31.59,0,0,0,11.37-7q8.67-8.4,8.67-22.17,0-9.43-3.89-14.91a26.25,26.25,0,0,0-9.42-8.31,35.79,35.79,0,0,0-11.36-3.67,73.26,73.26,0,0,0-9.72-.82H1069Z"/><path class="cls-1" d="M1243.15,278.37V322.1h54.42v7.49h-54.42v49.58h55.92v7.49h-63.4V270.88h63.4v7.49Z"/><path class="cls-2" d="M94.38,503.31a17.73,17.73,0,0,1,1.16,20.62,18.72,18.72,0,0,1-8,6.7,28.46,28.46,0,0,1-12.17,2.44H47.44V463.65H74.08a28.71,28.71,0,0,1,12.26,2.4,17.86,17.86,0,0,1,7.74,6.44,16.34,16.34,0,0,1,2.62,9,15.43,15.43,0,0,1-3.22,10,18.75,18.75,0,0,1-8.65,5.89A15.43,15.43,0,0,1,94.38,503.31ZM58.9,492.82H73.07c3.75,0,6.69-.85,8.8-2.55A8.87,8.87,0,0,0,85,482.93a9,9,0,0,0-3.17-7.34c-2.11-1.77-5.05-2.65-8.8-2.65H58.9ZM83.53,521a9.64,9.64,0,0,0,3.31-7.79,10.11,10.11,0,0,0-3.51-8.1,14,14,0,0,0-9.35-3H58.9v21.67H74.38Q80.22,523.78,83.53,521Z"/><path class="cls-2" d="M161.13,509.8H118.81a15.28,15.28,0,0,0,4.93,10.59,15.6,15.6,0,0,0,10.85,4q9.25,0,13.07-7.69H160a24.85,24.85,0,0,1-9.1,12.44Q144.34,534,134.59,534a28.47,28.47,0,0,1-14.22-3.54,25.37,25.37,0,0,1-9.85-10A30.35,30.35,0,0,1,107,505.5a30.94,30.94,0,0,1,3.47-14.93,24.25,24.25,0,0,1,9.75-9.94,29.18,29.18,0,0,1,14.42-3.5,28.43,28.43,0,0,1,14,3.4,24.14,24.14,0,0,1,9.55,9.54,28.6,28.6,0,0,1,3.42,14.14A35.13,35.13,0,0,1,161.13,509.8Zm-11.56-9.19a12.89,12.89,0,0,0-4.52-10.09,16.24,16.24,0,0,0-11-3.8,14.75,14.75,0,0,0-10.15,3.75,15.63,15.63,0,0,0-5,10.14Z"/><path class="cls-2" d="M181.19,531.63a20.58,20.58,0,0,1-8.19-6.4,15.76,15.76,0,0,1-3.22-9h11.86A8,8,0,0,0,185,522a12.3,12.3,0,0,0,7.69,2.34c3.22,0,5.71-.61,7.49-1.84a5.6,5.6,0,0,0,2.66-4.75,4.87,4.87,0,0,0-3-4.59,55.86,55.86,0,0,0-9.4-3.3,90,90,0,0,1-10.16-3.3,17.71,17.71,0,0,1-6.78-4.89,12.79,12.79,0,0,1-2.87-8.69,13.45,13.45,0,0,1,2.62-8,17.35,17.35,0,0,1,7.49-5.75,28.09,28.09,0,0,1,11.21-2.1q9.44,0,15.22,4.75t6.19,12.94H202a8.1,8.1,0,0,0-3-5.9,11.37,11.37,0,0,0-7.34-2.2c-3,0-5.33.57-6.93,1.7a5.26,5.26,0,0,0-2.42,4.5,4.86,4.86,0,0,0,1.61,3.69,11.35,11.35,0,0,0,3.92,2.35c1.54.57,3.82,1.28,6.84,2.15a75.28,75.28,0,0,1,9.9,3.24,18.52,18.52,0,0,1,6.69,4.85,12.81,12.81,0,0,1,2.91,8.49,14.18,14.18,0,0,1-2.61,8.39,17.36,17.36,0,0,1-7.39,5.8,30.78,30.78,0,0,1-22.92-.25Z"/><path class="cls-2" d="M239.85,487.32v30.47c0,2.06.48,3.55,1.45,4.45s2.63,1.34,5,1.34h7v9.49h-9q-7.74,0-11.86-3.59t-4.12-11.69V487.32h-6.54V478h6.54V464.35h11.56V478h13.47v9.29Z"/><path class="cls-2" d="M345.8,463.65v69.42H334.34V502.71H301.47v30.36H290V463.65h11.46v29.77h32.87V463.65Z"/><path class="cls-2" d="M411.24,509.8H368.92a15.28,15.28,0,0,0,4.93,10.59,15.6,15.6,0,0,0,10.85,4q9.26,0,13.07-7.69h12.37a24.85,24.85,0,0,1-9.1,12.44Q394.45,534,384.7,534a28.47,28.47,0,0,1-14.22-3.54,25.37,25.37,0,0,1-9.85-10,30.35,30.35,0,0,1-3.57-14.94,31.05,31.05,0,0,1,3.47-14.93,24.25,24.25,0,0,1,9.75-9.94,29.18,29.18,0,0,1,14.42-3.5,28.43,28.43,0,0,1,14,3.4,24.08,24.08,0,0,1,9.55,9.54,28.6,28.6,0,0,1,3.42,14.14A35.13,35.13,0,0,1,411.24,509.8Zm-11.56-9.19a12.89,12.89,0,0,0-4.52-10.09,16.24,16.24,0,0,0-11-3.8,14.75,14.75,0,0,0-10.15,3.75,15.63,15.63,0,0,0-5,10.14Z"/><path class="cls-2" d="M422.55,490.62a25.3,25.3,0,0,1,22.67-13.49,24.27,24.27,0,0,1,11.41,2.55,23.23,23.23,0,0,1,7.79,6.34v-8H476v55H464.42v-8.19a22.78,22.78,0,0,1-7.94,6.5,25.9,25.9,0,0,1-24.53-1,26,26,0,0,1-9.4-10.19,31.22,31.22,0,0,1-3.47-14.84A30.33,30.33,0,0,1,422.55,490.62Zm39.51,5a16.68,16.68,0,0,0-6.18-6.39,16.34,16.34,0,0,0-8.25-2.2,16.56,16.56,0,0,0-8.24,2.15,16.19,16.19,0,0,0-6.18,6.29,19.53,19.53,0,0,0-2.36,9.84,20.32,20.32,0,0,0,2.36,10,16.56,16.56,0,0,0,6.23,6.55,16.13,16.13,0,0,0,8.19,2.24,16.33,16.33,0,0,0,8.25-2.19,16.57,16.57,0,0,0,6.18-6.45,20.16,20.16,0,0,0,2.36-9.94A19.91,19.91,0,0,0,462.06,495.61Z"/><path class="cls-2" d="M502.52,459.15v73.92H491.06V459.15Z"/><path class="cls-2" d="M531,487.32v30.47c0,2.06.49,3.55,1.46,4.45s2.63,1.34,5,1.34h7v9.49h-9.05q-7.74,0-11.86-3.59t-4.12-11.69V487.32h-6.53V478h6.53V464.35H531V478h13.47v9.29Z"/><path class="cls-2" d="M595,479.83a19.3,19.3,0,0,1,7.84,8,26.53,26.53,0,0,1,2.86,12.79v32.46H594.3V502.31q0-7.4-3.72-11.34t-10.15-4q-6.43,0-10.2,4t-3.77,11.34v30.76H555V459.15h11.46v25.28a19.2,19.2,0,0,1,7.39-5.4,24.89,24.89,0,0,1,9.8-1.9A23.34,23.34,0,0,1,595,479.83Z"/><path class="cls-2" d="M656.73,531.33a20.88,20.88,0,0,1-8.85-7,17.56,17.56,0,0,1-3.21-10.49h12.26a11,11,0,0,0,3.57,7.4q3.16,2.9,8.9,2.89,5.93,0,9.24-2.84A9.22,9.22,0,0,0,682,514a8,8,0,0,0-2.06-5.69,13.8,13.8,0,0,0-5.13-3.4,76.73,76.73,0,0,0-8.49-2.59,80.32,80.32,0,0,1-11.11-3.65,18.36,18.36,0,0,1-7.29-5.74q-3-3.9-3-10.39a18.38,18.38,0,0,1,3-10.49,19.23,19.23,0,0,1,8.45-6.89,30.79,30.79,0,0,1,12.56-2.4q10.15,0,16.64,5.05a18.57,18.57,0,0,1,7.19,13.83H680.05a9.09,9.09,0,0,0-3.62-6.49,13.4,13.4,0,0,0-8.74-2.7,12.45,12.45,0,0,0-8.05,2.5,8.68,8.68,0,0,0-3.11,7.19,7.24,7.24,0,0,0,2,5.24,13.81,13.81,0,0,0,5,3.25,77.3,77.3,0,0,0,8.25,2.6A87,87,0,0,1,683,497a19,19,0,0,1,7.44,5.85q3.06,3.94,3.06,10.53a18.81,18.81,0,0,1-2.86,10,20.62,20.62,0,0,1-8.35,7.55,27.74,27.74,0,0,1-12.91,2.84A31.47,31.47,0,0,1,656.73,531.33Z"/><path class="cls-2" d="M757.26,478v55H745.8v-6.49a18.54,18.54,0,0,1-7.09,5.34,22.61,22.61,0,0,1-9.3,2,25,25,0,0,1-11.71-2.69,19.54,19.54,0,0,1-8.14-8,25.72,25.72,0,0,1-3-12.78V478H718V508.7q0,7.4,3.72,11.34T731.82,524q6.43,0,10.21-3.94t3.77-11.34V478Z"/><path class="cls-2" d="M780.73,531.63a20.58,20.58,0,0,1-8.19-6.4,15.83,15.83,0,0,1-3.22-9h11.86a8,8,0,0,0,3.37,5.85,12.3,12.3,0,0,0,7.69,2.34c3.22,0,5.71-.61,7.49-1.84a5.6,5.6,0,0,0,2.66-4.75,4.87,4.87,0,0,0-3-4.59,55.86,55.86,0,0,0-9.4-3.3,90,90,0,0,1-10.16-3.3,17.71,17.71,0,0,1-6.78-4.89,12.79,12.79,0,0,1-2.87-8.69,13.45,13.45,0,0,1,2.62-8,17.41,17.41,0,0,1,7.49-5.75,28.09,28.09,0,0,1,11.21-2.1q9.44,0,15.23,4.75A17,17,0,0,1,813,494.82H801.49a8.1,8.1,0,0,0-3-5.9,11.37,11.37,0,0,0-7.34-2.2q-4.51,0-6.93,1.7a5.26,5.26,0,0,0-2.42,4.5,4.86,4.86,0,0,0,1.61,3.69,11.35,11.35,0,0,0,3.92,2.35c1.54.57,3.82,1.28,6.84,2.15a75.28,75.28,0,0,1,9.9,3.24,18.52,18.52,0,0,1,6.69,4.85,12.81,12.81,0,0,1,2.91,8.49,14.18,14.18,0,0,1-2.61,8.39,17.36,17.36,0,0,1-7.39,5.8,30.78,30.78,0,0,1-22.92-.25Z"/><path class="cls-2" d="M839.39,487.32v30.47c0,2.06.48,3.55,1.45,4.45s2.63,1.34,5,1.34h7v9.49h-9.05q-7.74,0-11.86-3.59t-4.12-11.69V487.32h-6.54V478h6.54V464.35h11.56V478h13.47v9.29Z"/><path class="cls-2" d="M863.06,490.62a25.3,25.3,0,0,1,22.67-13.49,24.27,24.27,0,0,1,11.41,2.55,23.23,23.23,0,0,1,7.79,6.34v-8h11.56v55H904.93v-8.19a22.78,22.78,0,0,1-7.94,6.5,25.9,25.9,0,0,1-24.53-1,25.87,25.87,0,0,1-9.4-10.19,31.22,31.22,0,0,1-3.47-14.84A30.33,30.33,0,0,1,863.06,490.62Zm39.51,5a16.68,16.68,0,0,0-6.18-6.39,16.34,16.34,0,0,0-8.25-2.2,16.56,16.56,0,0,0-8.24,2.15,16.19,16.19,0,0,0-6.18,6.29,19.53,19.53,0,0,0-2.37,9.84,20.33,20.33,0,0,0,2.37,10,16.56,16.56,0,0,0,6.23,6.55,16.13,16.13,0,0,0,8.19,2.24,16.33,16.33,0,0,0,8.25-2.19,16.57,16.57,0,0,0,6.18-6.45,20.16,20.16,0,0,0,2.36-9.94A19.91,19.91,0,0,0,902.57,495.61Z"/><path class="cls-2" d="M932.17,468.64a7.44,7.44,0,0,1,0-10.38,7.13,7.13,0,0,1,5.23-2.1,7.29,7.29,0,1,1,0,14.58A7.13,7.13,0,0,1,932.17,468.64ZM943,478v55H931.57V478Z"/><path class="cls-2" d="M997.77,479.83a19.29,19.29,0,0,1,8.09,8,26.19,26.19,0,0,1,2.91,12.79v32.46H997.41V502.31q0-7.4-3.71-11.34t-10.16-4q-6.43,0-10.2,4t-3.77,11.34v30.76H958.11V478h11.46v6.3a18.88,18.88,0,0,1,7.19-5.3,23.15,23.15,0,0,1,9.29-1.9A25,25,0,0,1,997.77,479.83Z"/><path class="cls-2" d="M1023,490.62a25.3,25.3,0,0,1,22.67-13.49,24.3,24.3,0,0,1,11.41,2.55,23.33,23.33,0,0,1,7.79,6.34v-8h11.56v55h-11.56v-8.19a22.87,22.87,0,0,1-7.94,6.5,25.9,25.9,0,0,1-24.53-1,25.87,25.87,0,0,1-9.4-10.19,31.22,31.22,0,0,1-3.47-14.84A30.33,30.33,0,0,1,1023,490.62Zm39.51,5a16.63,16.63,0,0,0-6.19-6.39,16.27,16.27,0,0,0-8.24-2.2,16.53,16.53,0,0,0-8.24,2.15,16.28,16.28,0,0,0-6.19,6.29,19.63,19.63,0,0,0-2.36,9.84,20.43,20.43,0,0,0,2.36,10,16.65,16.65,0,0,0,6.24,6.55,16.34,16.34,0,0,0,16.43,0,16.53,16.53,0,0,0,6.19-6.45,20.16,20.16,0,0,0,2.36-9.94A19.91,19.91,0,0,0,1062.51,495.61Z"/><path class="cls-2" d="M1111,479.68a24.81,24.81,0,0,1,11.31-2.55,25.67,25.67,0,0,1,13.27,3.5,24.67,24.67,0,0,1,9.35,9.94,31.08,31.08,0,0,1,3.42,14.73,31.67,31.67,0,0,1-3.42,14.84,25.52,25.52,0,0,1-9.4,10.19,26.47,26.47,0,0,1-24.63,1.14,21.76,21.76,0,0,1-7.89-6.39v8h-11.46V459.15H1103v27.07A21.67,21.67,0,0,1,1111,479.68Zm23.32,15.78a16.1,16.1,0,0,0-6.23-6.29,16.86,16.86,0,0,0-8.29-2.15,16.44,16.44,0,0,0-14.43,8.59,19.8,19.8,0,0,0-2.36,9.89,20,20,0,0,0,2.36,9.94,16.4,16.4,0,0,0,22.72,6.4,16.56,16.56,0,0,0,6.23-6.55,20.32,20.32,0,0,0,2.36-10A19.53,19.53,0,0,0,1134.28,495.46Z"/><path class="cls-2" d="M1160.27,468.64a7.44,7.44,0,0,1,0-10.38,7.11,7.11,0,0,1,5.23-2.1,7.29,7.29,0,1,1,0,14.58A7.11,7.11,0,0,1,1160.27,468.64Zm10.85,9.39v55h-11.46V478Z"/><path class="cls-2" d="M1197.66,459.15v73.92H1186.2V459.15Z"/><path class="cls-2" d="M1213.35,468.64a7.41,7.41,0,0,1,0-10.38,7.1,7.1,0,0,1,5.22-2.1,7.29,7.29,0,1,1,0,14.58A7.1,7.1,0,0,1,1213.35,468.64ZM1224.2,478v55h-11.46V478Z"/><path class="cls-2" d="M1252.65,487.32v30.47c0,2.06.49,3.55,1.46,4.45s2.63,1.34,5,1.34h7v9.49h-9q-7.74,0-11.86-3.59t-4.12-11.69V487.32h-6.53V478h6.53V464.35h11.56V478h13.47v9.29Z"/><path class="cls-2" d="M1326.54,478l-34,80.92H1280.7L1292,532.17,1270.14,478h12.77l15.58,42,16.19-42Z"/></svg>